# xmcd
#
# Track frame offsets:
#	150
#	20804
#	38504
#	55220
#	76000
#
# Disc length: 1204 seconds
#
# Revision: 0
# Processed by: cddbd v1.5.2PL0 Copyright (c) Steve Scherf et al.
# Submitted via: EZCDAudioConverter 1.0.8.1
#
DISCID=3004b205
DTITLE=Crystal Bowersox w/Frankie May - Once Upon A Time...
DYEAR=2009
DGENRE=Country
TTITLE0=Mama
TTITLE1=Get Me Out
TTITLE2=Slut
TTITLE3=Outta My Mind
TTITLE4=Baby
EXTD=
EXTT0=
EXTT1=
EXTT2=
EXTT3=
EXTT4=
PLAYORDER=
